<svg width="196" height="98" viewBox="0 0 196 98" fill="none" xmlns="http://www.w3.org/2000/svg">
<path d="M38.15 12.9V64H29.89L28.49 60.99C27.4167 62.11 25.9233 63.0433 24.01 63.79C22.1433 64.49 20.1833 64.84 18.13 64.84C15.6567 64.84 13.37 64.3733 11.27 63.44C9.17 62.46 7.35 61.1533 5.81 59.52C4.31667 57.84 3.12667 55.9033 2.24 53.71C1.4 51.47 0.98 49.09 0.98 46.57C0.98 44.05 1.4 41.6933 2.24 39.5C3.12667 37.26 4.31667 35.3233 5.81 33.69C7.35 32.01 9.17 30.7033 11.27 29.77C13.37 28.79 15.6567 28.3 18.13 28.3C20.3233 28.3 22.26 28.5567 23.94 29.07C25.6667 29.5833 27.1833 30.4467 28.49 31.66V12.9H38.15ZM28.49 46.71C28.49 44.89 28.2567 43.3733 27.79 42.16C27.3233 40.9 26.67 39.8967 25.83 39.15C24.99 38.3567 24.01 37.7967 22.89 37.47C21.8167 37.0967 20.65 36.91 19.39 36.91C18.13 36.91 16.94 37.1667 15.82 37.68C14.7467 38.1933 13.79 38.8933 12.95 39.78C12.1567 40.62 11.5267 41.6467 11.06 42.86C10.5933 44.0267 10.36 45.2633 10.36 46.57C10.36 47.9233 10.5933 49.1833 11.06 50.35C11.5267 51.5167 12.1567 52.5433 12.95 53.43C13.79 54.27 14.7467 54.9467 15.82 55.46C16.94 55.9733 18.13 56.23 19.39 56.23C21.91 56.23 24.0333 55.46 25.76 53.92C27.5333 52.3333 28.4433 49.93 28.49 46.71ZM80.7691 29.28V64H72.4391L71.4591 60.29C70.1057 62.11 68.4724 63.3233 66.5591 63.93C64.6924 64.5367 62.7324 64.84 60.6791 64.84C58.2057 64.84 55.9191 64.3733 53.8191 63.44C51.7657 62.46 49.9691 61.1533 48.4291 59.52C46.8891 57.84 45.6757 55.9033 44.7891 53.71C43.9491 51.47 43.5291 49.09 43.5291 46.57C43.5291 44.05 43.9491 41.6933 44.7891 39.5C45.6757 37.26 46.8891 35.3233 48.4291 33.69C49.9691 32.01 51.7657 30.7033 53.8191 29.77C55.9191 28.79 58.2057 28.3 60.6791 28.3C62.9191 28.3 64.9724 28.65 66.8391 29.35C68.7057 30.05 70.2457 31.17 71.4591 32.71L72.4391 29.28H80.7691ZM71.1091 46.71C71.1091 44.89 70.8524 43.3733 70.3391 42.16C69.8724 40.9 69.2191 39.8967 68.3791 39.15C67.5857 38.3567 66.6291 37.7967 65.5091 37.47C64.4357 37.0967 63.2691 36.91 62.0091 36.91C60.7491 36.91 59.5591 37.1667 58.4391 37.68C57.3657 38.1933 56.4091 38.8933 55.5691 39.78C54.7291 40.62 54.0757 41.6467 53.6091 42.86C53.1424 44.0267 52.9091 45.2633 52.9091 46.57C52.9091 47.9233 53.1424 49.1833 53.6091 50.35C54.0757 51.5167 54.7291 52.5433 55.5691 53.43C56.4091 54.27 57.3657 54.9467 58.4391 55.46C59.5591 55.9733 60.7491 56.23 62.0091 56.23C64.5291 56.23 66.6524 55.46 68.3791 53.92C70.1524 52.3333 71.0624 49.93 71.1091 46.71ZM96.547 34.11C97.0136 33.3633 97.5503 32.6633 98.157 32.01C98.7636 31.31 99.487 30.7033 100.327 30.19C101.167 29.63 102.124 29.1867 103.197 28.86C104.27 28.5333 105.484 28.37 106.837 28.37C108.424 28.37 110.267 28.65 112.367 29.21L111.457 37.82C110.944 37.7267 110.43 37.61 109.917 37.47C109.497 37.3767 109.03 37.3067 108.517 37.26C108.004 37.1667 107.537 37.12 107.117 37.12C105.624 37.12 104.224 37.33 102.917 37.75C101.657 38.17 100.56 38.7533 99.627 39.5C98.6936 40.2467 97.947 41.1567 97.387 42.23C96.827 43.2567 96.547 44.3767 96.547 45.59V64H86.887V29.28H95.637L96.547 34.11Z" fill="#00AEFF"/>
<path d="M135.965 28.3C138.391 28.3 140.655 28.79 142.755 29.77C144.855 30.7033 146.675 32.01 148.215 33.69C149.755 35.3233 150.945 37.26 151.785 39.5C152.671 41.6933 153.115 44.05 153.115 46.57C153.115 49.09 152.671 51.47 151.785 53.71C150.945 55.9033 149.755 57.84 148.215 59.52C146.675 61.1533 144.855 62.46 142.755 63.44C140.655 64.3733 138.391 64.84 135.965 64.84C133.911 64.84 131.928 64.49 130.015 63.79C128.148 63.0433 126.678 62.11 125.605 60.99L124.205 64H115.945V12.9H125.605V32.08C128.265 29.56 131.718 28.3 135.965 28.3ZM134.635 56.23C135.895 56.23 137.061 55.9733 138.135 55.46C139.255 54.9467 140.235 54.27 141.075 53.43C141.915 52.5433 142.568 51.5167 143.035 50.35C143.501 49.1833 143.735 47.9233 143.735 46.57C143.735 45.2633 143.501 44.0267 143.035 42.86C142.568 41.6467 141.915 40.62 141.075 39.78C140.235 38.8933 139.255 38.1933 138.135 37.68C137.061 37.1667 135.895 36.91 134.635 36.91C133.375 36.91 132.185 37.0967 131.065 37.47C129.991 37.7967 129.035 38.3567 128.195 39.15C127.401 39.8967 126.771 40.9 126.305 42.16C125.838 43.3733 125.605 44.89 125.605 46.71C125.605 48.3433 125.838 49.7667 126.305 50.98C126.771 52.1467 127.401 53.1267 128.195 53.92C129.035 54.6667 129.991 55.25 131.065 55.67C132.185 56.0433 133.375 56.23 134.635 56.23ZM174.382 28.3C176.995 28.3 179.375 28.8367 181.522 29.91C183.669 30.9367 185.512 32.3133 187.052 34.04C188.592 35.72 189.782 37.68 190.622 39.92C191.462 42.1133 191.882 44.3767 191.882 46.71C191.882 48.11 191.695 49.6033 191.322 51.19H166.542C167.475 52.7767 168.805 54.13 170.532 55.25C172.259 56.3233 174.125 56.86 176.132 56.86C178.139 56.86 179.889 56.6967 181.382 56.37C182.922 56.0433 184.369 55.6233 185.722 55.11L188.942 61.06C187.215 62.2733 185.232 63.2067 182.992 63.86C180.799 64.5133 178.442 64.84 175.922 64.84C173.169 64.84 170.602 64.3733 168.222 63.44C165.842 62.46 163.765 61.1533 161.992 59.52C160.219 57.8867 158.819 55.95 157.792 53.71C156.765 51.47 156.252 49.09 156.252 46.57C156.252 44.0967 156.719 41.7633 157.652 39.57C158.585 37.33 159.869 35.3933 161.502 33.76C163.182 32.08 165.119 30.75 167.312 29.77C169.505 28.79 171.862 28.3 174.382 28.3ZM182.292 43.7C181.732 41.6933 180.729 40.06 179.282 38.8C177.835 37.54 176.202 36.91 174.382 36.91C172.515 36.91 170.812 37.54 169.272 38.8C167.779 40.06 166.752 41.6933 166.192 43.7H182.292Z" fill="#FFC727"/>
<path d="M7.99365 91.186H3.31201L2.33252 94H0.149414L4.71484 81.9141H6.59912L11.1729 94H8.98145L7.99365 91.186ZM3.90137 89.4927H7.4043L5.65283 84.479L3.90137 89.4927ZM16.7842 94V81.9141H20.9263C22.2931 81.9141 23.3335 82.188 24.0474 82.7358C24.7612 83.2837 25.1182 84.0999 25.1182 85.1846C25.1182 85.738 24.9688 86.236 24.6699 86.6787C24.3711 87.1214 23.9339 87.4645 23.3584 87.708C24.0114 87.8851 24.515 88.2199 24.8691 88.7124C25.2288 89.1994 25.4087 89.786 25.4087 90.4722C25.4087 91.6066 25.0435 92.4782 24.313 93.0869C23.5881 93.6956 22.5477 94 21.1919 94H16.7842ZM18.8843 88.5464V92.3232H21.2168C21.8753 92.3232 22.39 92.16 22.7607 91.8335C23.1315 91.507 23.3169 91.0532 23.3169 90.4722C23.3169 89.216 22.675 88.5741 21.3911 88.5464H18.8843ZM18.8843 87.0024H20.9429C21.5959 87.0024 22.105 86.8558 22.4702 86.5625C22.841 86.2637 23.0264 85.8431 23.0264 85.3008C23.0264 84.7031 22.8548 84.2715 22.5117 84.0059C22.1742 83.7402 21.6457 83.6074 20.9263 83.6074H18.8843V87.0024ZM31.269 94.166C29.9907 94.166 28.9531 93.7648 28.1562 92.9624C27.3649 92.1545 26.9692 91.0809 26.9692 89.7417V89.4927C26.9692 88.5962 27.1408 87.7965 27.4839 87.0938C27.8325 86.3854 28.3195 85.8348 28.9448 85.4419C29.5701 85.049 30.2674 84.8525 31.0366 84.8525C32.2596 84.8525 33.2031 85.2427 33.8672 86.0229C34.5368 86.8032 34.8716 87.9072 34.8716 89.335V90.1484H29.0029C29.0638 90.89 29.3101 91.4766 29.7417 91.9082C30.1789 92.3398 30.7267 92.5557 31.3853 92.5557C32.3094 92.5557 33.062 92.1821 33.6431 91.4351L34.7305 92.4727C34.3708 93.0094 33.8893 93.4272 33.2861 93.7261C32.6885 94.0194 32.0161 94.166 31.269 94.166ZM31.0283 86.4712C30.4749 86.4712 30.0267 86.6649 29.6836 87.0522C29.346 87.4396 29.1302 87.9792 29.0361 88.6709H32.8794V88.5215C32.8351 87.8464 32.6553 87.3372 32.3398 86.9941C32.0244 86.6455 31.5872 86.4712 31.0283 86.4712ZM38.9722 82.8354V85.0186H40.5576V86.5127H38.9722V91.5264C38.9722 91.8695 39.0386 92.1185 39.1714 92.2734C39.3097 92.4229 39.5532 92.4976 39.9019 92.4976C40.1343 92.4976 40.3695 92.4699 40.6074 92.4146V93.9751C40.1481 94.1024 39.7054 94.166 39.2793 94.166C37.7298 94.166 36.9551 93.311 36.9551 91.6011V86.5127H35.4775V85.0186H36.9551V82.8354H38.9722ZM44.6333 82.8354V85.0186H46.2188V86.5127H44.6333V91.5264C44.6333 91.8695 44.6997 92.1185 44.8325 92.2734C44.9709 92.4229 45.2144 92.4976 45.563 92.4976C45.7954 92.4976 46.0306 92.4699 46.2686 92.4146V93.9751C45.8092 94.1024 45.3665 94.166 44.9404 94.166C43.391 94.166 42.6162 93.311 42.6162 91.6011V86.5127H41.1387V85.0186H42.6162V82.8354H44.6333ZM51.7222 94.166C50.4438 94.166 49.4062 93.7648 48.6094 92.9624C47.818 92.1545 47.4224 91.0809 47.4224 89.7417V89.4927C47.4224 88.5962 47.5939 87.7965 47.937 87.0938C48.2856 86.3854 48.7726 85.8348 49.3979 85.4419C50.0233 85.049 50.7205 84.8525 51.4897 84.8525C52.7127 84.8525 53.6562 85.2427 54.3203 86.0229C54.9899 86.8032 55.3247 87.9072 55.3247 89.335V90.1484H49.4561C49.5169 90.89 49.7632 91.4766 50.1948 91.9082C50.632 92.3398 51.1799 92.5557 51.8384 92.5557C52.7625 92.5557 53.5151 92.1821 54.0962 91.4351L55.1836 92.4727C54.8239 93.0094 54.3424 93.4272 53.7393 93.7261C53.1416 94.0194 52.4692 94.166 51.7222 94.166ZM51.4814 86.4712C50.9281 86.4712 50.4798 86.6649 50.1367 87.0522C49.7992 87.4396 49.5833 87.9792 49.4893 88.6709H53.3325V88.5215C53.2882 87.8464 53.1084 87.3372 52.793 86.9941C52.4775 86.6455 52.0404 86.4712 51.4814 86.4712ZM61.6001 86.8613C61.3345 86.8171 61.0605 86.7949 60.7783 86.7949C59.8542 86.7949 59.2316 87.1491 58.9106 87.8574V94H56.8936V85.0186H58.8193L58.8691 86.0229C59.3561 85.2427 60.0312 84.8525 60.8945 84.8525C61.1823 84.8525 61.4202 84.8913 61.6084 84.9688L61.6001 86.8613ZM76.7822 91.0117L78.6416 81.9141H80.7251L77.936 94H75.9272L73.6279 85.1763L71.2788 94H69.2617L66.4727 81.9141H68.5562L70.4321 90.9951L72.7397 81.9141H74.4995L76.7822 91.0117ZM87.1499 94C87.0614 93.8285 86.9839 93.549 86.9175 93.1616C86.2756 93.8312 85.4897 94.166 84.5601 94.166C83.658 94.166 82.922 93.9087 82.3521 93.394C81.7821 92.8794 81.4971 92.243 81.4971 91.4849C81.4971 90.5275 81.8512 89.7943 82.5596 89.2852C83.2734 88.7705 84.2917 88.5132 85.6143 88.5132H86.8511V87.9238C86.8511 87.459 86.721 87.0882 86.4609 86.8115C86.2008 86.5293 85.8052 86.3882 85.2739 86.3882C84.8146 86.3882 84.4383 86.5044 84.145 86.7368C83.8517 86.9637 83.7051 87.2542 83.7051 87.6084H81.688C81.688 87.1159 81.8512 86.6566 82.1777 86.2305C82.5042 85.7988 82.9469 85.4613 83.5059 85.2178C84.0703 84.9743 84.6984 84.8525 85.3901 84.8525C86.4416 84.8525 87.2799 85.1182 87.9053 85.6494C88.5306 86.1751 88.8516 86.9167 88.8682 87.874V91.9248C88.8682 92.7327 88.9816 93.3774 89.2085 93.8589V94H87.1499ZM84.9336 92.5474C85.332 92.5474 85.7056 92.4505 86.0542 92.2568C86.4084 92.0632 86.674 91.8031 86.8511 91.4766V89.7832H85.7637C85.0166 89.7832 84.4549 89.9132 84.0786 90.1733C83.7023 90.4334 83.5142 90.8014 83.5142 91.2773C83.5142 91.6647 83.6414 91.9746 83.896 92.207C84.1561 92.4339 84.502 92.5474 84.9336 92.5474ZM93.9897 91.1113L95.8159 85.0186H97.9658L94.3965 95.3613C93.8486 96.8721 92.9189 97.6274 91.6074 97.6274C91.3141 97.6274 90.9904 97.5776 90.6362 97.478V95.9175L91.0181 95.9424C91.5272 95.9424 91.909 95.8483 92.1636 95.6602C92.4237 95.4775 92.6284 95.1676 92.7778 94.7305L93.0684 93.9585L89.9141 85.0186H92.0889L93.9897 91.1113ZM111.795 83.6074H108.026V94H105.943V83.6074H102.208V81.9141H111.795V83.6074ZM111.089 89.4263C111.089 88.5464 111.264 87.755 111.612 87.0522C111.961 86.3439 112.451 85.8016 113.082 85.4253C113.712 85.0435 114.437 84.8525 115.256 84.8525C116.468 84.8525 117.451 85.2427 118.203 86.0229C118.961 86.8032 119.371 87.8381 119.432 89.1274L119.44 89.6006C119.44 90.486 119.268 91.2773 118.925 91.9746C118.588 92.6719 118.101 93.2114 117.464 93.5933C116.833 93.9751 116.103 94.166 115.273 94.166C114.006 94.166 112.99 93.7454 112.227 92.9043C111.468 92.0576 111.089 90.9315 111.089 89.5259V89.4263ZM113.106 89.6006C113.106 90.5247 113.297 91.2497 113.679 91.7754C114.061 92.2956 114.592 92.5557 115.273 92.5557C115.954 92.5557 116.482 92.29 116.858 91.7588C117.24 91.2275 117.431 90.45 117.431 89.4263C117.431 88.5187 117.235 87.7993 116.842 87.2681C116.454 86.7368 115.926 86.4712 115.256 86.4712C114.598 86.4712 114.075 86.734 113.688 87.2598C113.3 87.7799 113.106 88.5602 113.106 89.6006ZM125.574 94V81.9141H129.144C130.212 81.9141 131.158 82.152 131.982 82.6279C132.812 83.1038 133.454 83.779 133.908 84.6533C134.362 85.5277 134.589 86.5293 134.589 87.6582V88.2642C134.589 89.4097 134.359 90.4168 133.9 91.2856C133.446 92.1545 132.796 92.8241 131.949 93.2944C131.108 93.7648 130.142 94 129.052 94H125.574ZM127.674 83.6074V92.3232H129.044C130.145 92.3232 130.989 91.9801 131.576 91.2939C132.168 90.6022 132.469 89.6117 132.48 88.3223V87.6499C132.48 86.3384 132.195 85.3368 131.625 84.645C131.056 83.9533 130.228 83.6074 129.144 83.6074H127.674ZM136.108 89.4263C136.108 88.5464 136.282 87.755 136.631 87.0522C136.979 86.3439 137.469 85.8016 138.1 85.4253C138.731 85.0435 139.456 84.8525 140.275 84.8525C141.487 84.8525 142.469 85.2427 143.222 86.0229C143.98 86.8032 144.389 87.8381 144.45 89.1274L144.458 89.6006C144.458 90.486 144.287 91.2773 143.944 91.9746C143.606 92.6719 143.119 93.2114 142.483 93.5933C141.852 93.9751 141.122 94.166 140.292 94.166C139.024 94.166 138.009 93.7454 137.245 92.9043C136.487 92.0576 136.108 90.9315 136.108 89.5259V89.4263ZM138.125 89.6006C138.125 90.5247 138.316 91.2497 138.698 91.7754C139.08 92.2956 139.611 92.5557 140.292 92.5557C140.972 92.5557 141.501 92.29 141.877 91.7588C142.259 91.2275 142.45 90.45 142.45 89.4263C142.45 88.5187 142.253 87.7993 141.86 87.2681C141.473 86.7368 140.944 86.4712 140.275 86.4712C139.616 86.4712 139.093 86.734 138.706 87.2598C138.319 87.7799 138.125 88.5602 138.125 89.6006ZM159.856 92.4312C159.419 93.0011 158.813 93.4328 158.039 93.7261C157.264 94.0194 156.384 94.166 155.399 94.166C154.386 94.166 153.49 93.9364 152.709 93.4771C151.929 93.0177 151.326 92.362 150.9 91.5098C150.479 90.652 150.261 89.6532 150.244 88.5132V87.5669C150.244 85.7407 150.681 84.3158 151.556 83.292C152.43 82.2627 153.65 81.748 155.216 81.748C156.561 81.748 157.629 82.0801 158.42 82.7441C159.212 83.4082 159.688 84.3656 159.848 85.6162H157.79C157.557 84.1608 156.713 83.4331 155.258 83.4331C154.317 83.4331 153.6 83.7734 153.108 84.4541C152.621 85.1292 152.369 86.1226 152.353 87.4341V88.3638C152.353 89.6698 152.626 90.6852 153.174 91.4102C153.728 92.1296 154.494 92.4893 155.474 92.4893C156.547 92.4893 157.311 92.2458 157.765 91.7588V89.3931H155.274V87.7993H159.856V92.4312ZM161.591 89.4263C161.591 88.5464 161.766 87.755 162.114 87.0522C162.463 86.3439 162.953 85.8016 163.583 85.4253C164.214 85.0435 164.939 84.8525 165.758 84.8525C166.97 84.8525 167.952 85.2427 168.705 86.0229C169.463 86.8032 169.873 87.8381 169.934 89.1274L169.942 89.6006C169.942 90.486 169.77 91.2773 169.427 91.9746C169.09 92.6719 168.603 93.2114 167.966 93.5933C167.335 93.9751 166.605 94.166 165.775 94.166C164.508 94.166 163.492 93.7454 162.729 92.9043C161.97 92.0576 161.591 90.9315 161.591 89.5259V89.4263ZM163.608 89.6006C163.608 90.5247 163.799 91.2497 164.181 91.7754C164.563 92.2956 165.094 92.5557 165.775 92.5557C166.456 92.5557 166.984 92.29 167.36 91.7588C167.742 91.2275 167.933 90.45 167.933 89.4263C167.933 88.5187 167.737 87.7993 167.344 87.2681C166.956 86.7368 166.428 86.4712 165.758 86.4712C165.1 86.4712 164.577 86.734 164.189 87.2598C163.802 87.7799 163.608 88.5602 163.608 89.6006ZM171.27 89.4263C171.27 88.5464 171.444 87.755 171.793 87.0522C172.142 86.3439 172.631 85.8016 173.262 85.4253C173.893 85.0435 174.618 84.8525 175.437 84.8525C176.649 84.8525 177.631 85.2427 178.384 86.0229C179.142 86.8032 179.551 87.8381 179.612 89.1274L179.621 89.6006C179.621 90.486 179.449 91.2773 179.106 91.9746C178.768 92.6719 178.281 93.2114 177.645 93.5933C177.014 93.9751 176.284 94.166 175.454 94.166C174.186 94.166 173.171 93.7454 172.407 92.9043C171.649 92.0576 171.27 90.9315 171.27 89.5259V89.4263ZM173.287 89.6006C173.287 90.5247 173.478 91.2497 173.86 91.7754C174.242 92.2956 174.773 92.5557 175.454 92.5557C176.134 92.5557 176.663 92.29 177.039 91.7588C177.421 91.2275 177.612 90.45 177.612 89.4263C177.612 88.5187 177.415 87.7993 177.022 87.2681C176.635 86.7368 176.107 86.4712 175.437 86.4712C174.778 86.4712 174.256 86.734 173.868 87.2598C173.481 87.7799 173.287 88.5602 173.287 89.6006ZM180.949 89.4429C180.949 88.0594 181.27 86.9499 181.912 86.1143C182.554 85.2731 183.414 84.8525 184.493 84.8525C185.445 84.8525 186.214 85.1846 186.801 85.8486V81.25H188.818V94H186.992L186.892 93.0703C186.289 93.8008 185.484 94.166 184.477 94.166C183.425 94.166 182.573 93.7427 181.92 92.896C181.272 92.0493 180.949 90.8983 180.949 89.4429ZM182.966 89.6172C182.966 90.5303 183.14 91.2441 183.489 91.7588C183.843 92.2679 184.344 92.5225 184.991 92.5225C185.816 92.5225 186.419 92.1545 186.801 91.4185V87.5835C186.43 86.8641 185.832 86.5044 185.008 86.5044C184.355 86.5044 183.851 86.7645 183.497 87.2847C183.143 87.7993 182.966 88.5768 182.966 89.6172Z" fill="#00AEFF"/>
</svg>
